# File created by Blade
# Date/Time:  Wed Apr 08 17:12:22 2015
#---------------------------------------------------------
:version 1.10
:name HOM
:units
  mass 1.0
  length 1.000000
  angle deg
:documentation
     Acclaim Skeleton File
:root
   axis xyz
   order TX TY TZ RX RY RZ
   position 0.000000 0.000000 0.000000
   orientation 0 0 0
:bonedata
   begin
      id 1
      name Spine_dum
      direction 0.000000 1.000000 0.000000
      length 5.893853
      axis 0.0 0.0 0.0 xyz
   end
   begin
      id 2
      name LeftUpLeg_dum
      direction 1.000000 0.000000 0.000000
      length 3.697939
      axis 0.0 0.0 0.0 xyz
   end
   begin
      id 3
      name RightUpLeg_dum
      direction -1.000000 0.000000 0.000000
      length 3.697939
      axis 0.0 0.0 0.0 xyz
   end
   begin
      id 4
      name Spine
      direction 0.000000 1.000000 0.000000
      length 0.000000
      axis 0.0 0.0 0.0 xyz
      dof rx ry rz
   end
   begin
      id 5
      name Spine_dum1
      direction 0.000000 1.000000 0.000000
      length 16.447146
      axis 0.0 0.0 0.0 xyz
   end
   begin
      id 6
      name Spine_dum2
      direction 0.000000 1.000000 0.000000
      length 10.900383
      axis 0.0 0.0 0.0 xyz
   end
   begin
      id 7
      name Spine_dum3
      direction 0.000000 1.000000 0.000000
      length 10.900383
      axis 0.0 0.0 0.0 xyz
   end
   begin
      id 8
      name Head
      direction 0.000000 1.000000 0.000000
      length 4.527550
      axis 0.0 0.0 0.0 xyz
      dof rx ry rz
   end
   begin
      id 9
      name LeftShoulder
      direction 1.000000 0.000000 0.000000
      length 8.219464
      axis 0.0 0.0 -90.0 xyz
      dof rx ry rz
   end
   begin
      id 10
      name LeftArm
      direction 1.000000 0.000000 0.000000
      length 11.094937
      axis 0.0 0.0 -90.0 xyz
      dof rx ry rz
   end
   begin
      id 11
      name LeftForeArm
      direction 1.000000 0.000000 0.000000
      length 9.103875
      axis 0.0 0.0 -90.0 xyz
      dof ry rz rx
   end
   begin
      id 12
      name LeftHand
      direction 0.000000 0.000000 0.000000
      length 0.000000
      axis 0.0 0.0 -90.0 xyz
      dof rx ry rz
   end
   begin
      id 13
      name LeftHand_dum1
      direction 0.000000 0.000000 0.000000
      length 0.000000
      axis 0.0 0.0 -90.0 xyz
   end
   begin
      id 14
      name LeftHand_dum2
      direction 1.000000 0.000000 0.000000
      length 3.937000
      axis 0.0 0.0 -90.0 xyz
   end
   begin
      id 15
      name LeftHandThumb1
      direction 0.000000 0.000000 1.000000
      length 3.937000
      axis 0.0 0.0 -90.0 xyz
      dof rx rz ry
   end
   begin
      id 16
      name RightShoulder
      direction -1.000000 0.000000 0.000000
      length 8.219464
      axis 0.0 0.0 90.0 xyz
      dof rx ry rz
   end
   begin
      id 17
      name RightArm
      direction -1.000000 0.000000 0.000000
      length 11.094937
      axis 0.0 0.0 90.0 xyz
      dof rx ry rz
   end
   begin
      id 18
      name RightForeArm
      direction -1.000000 0.000000 0.000000
      length 9.103875
      axis 0.0 0.0 90.0 xyz
      dof ry rz rx
   end
   begin
      id 19
      name RightHand
      direction 0.000000 0.000000 0.000000
      length 0.000000
      axis 0.0 0.0 90.0 xyz
      dof rx ry rz
   end
   begin
      id 20
      name RightHand_dum1
      direction 0.000000 0.000000 0.000000
      length 0.000000
      axis 0.0 0.0 90.0 xyz
   end
   begin
      id 21
      name RightHand_dum2
      direction -1.000000 0.000000 0.000000
      length 3.937000
      axis 0.0 0.0 90.0 xyz
   end
   begin
      id 22
      name RightHandThumb1
      direction 0.000000 0.000000 1.000000
      length 3.937000
      axis 0.0 0.0 90.0 xyz
      dof rx rz ry
   end
   begin
      id 23
      name LeftUpLeg
      direction 0.000000 -1.000000 0.000000
      length 16.181467
      axis 0.0 0.0 0.0 xyz
      dof rx ry rz
   end
   begin
      id 24
      name LeftLeg
      direction 0.000000 -1.000000 0.000000
      length 16.501392
      axis 0.0 0.0 0.0 xyz
      dof rx ry rz
   end
   begin
      id 25
      name LeftFoot
      direction 0.000000 -0.258819 0.965926
      length 6.408245
      axis 15.0 0.0 0.0 xyz
      dof rx ry rz
   end
   begin
      id 26
      name LeftToeBase
      direction 0.000000 0.000000 1.000000
      length 2.952750
      axis 0.0 0.0 0.0 xyz
      dof rx ry rz
   end
   begin
      id 27
      name RightUpLeg
      direction 0.000000 -1.000000 0.000000
      length 16.181467
      axis 0.0 0.0 0.0 xyz
      dof rx ry rz
   end
   begin
      id 28
      name RightLeg
      direction 0.000000 -1.000000 0.000000
      length 16.501392
      axis 0.0 0.0 0.0 xyz
      dof rx ry rz
   end
   begin
      id 29
      name RightFoot
      direction 0.000000 -0.258819 0.965926
      length 6.408245
      axis 15.0 0.0 0.0 xyz
      dof rx ry rz
   end
   begin
      id 30
      name RightToeBase
      direction 0.000000 0.000000 1.000000
      length 2.952750
      axis 0.0 0.0 0.0 xyz
      dof rx ry rz
   end
:hierarchy
   begin
      root Spine_dum LeftUpLeg_dum RightUpLeg_dum
      Spine_dum Spine
      LeftUpLeg_dum LeftUpLeg
      RightUpLeg_dum RightUpLeg
      Spine Spine_dum1 Spine_dum2 Spine_dum3
      Spine_dum1 Head
      Spine_dum2 LeftShoulder
      Spine_dum3 RightShoulder
      LeftShoulder LeftArm
      LeftArm LeftForeArm
      LeftForeArm LeftHand
      LeftHand LeftHand_dum1 LeftHand_dum2
      LeftHand_dum1 LeftHandThumb1
      RightShoulder RightArm
      RightArm RightForeArm
      RightForeArm RightHand
      RightHand RightHand_dum1 RightHand_dum2
      RightHand_dum1 RightHandThumb1
      LeftUpLeg LeftLeg
      LeftLeg LeftFoot
      LeftFoot LeftToeBase
      RightUpLeg RightLeg
      RightLeg RightFoot
      RightFoot RightToeBase
   end

# File created by Blade
# Date/Time:  Wed Apr 08 17:12:12 2015
# Frame Rate: 120.000 fps
#------------------------------------------------------
:FULLY-SPECIFIED
:DEGREES
220
root 2.916860 36.864415 3.028189 36.577075 -16.681681 -21.590262
Spine -30.146778 9.326738 16.761162
Head 14.246397 8.023640 7.009316
LeftShoulder -3.235089 28.722017 17.265142
LeftArm 26.601982 33.166396 -70.623544
LeftForeArm 17.926352 -0.000000 30.341744
LeftHand -11.237581 -0.000000 -12.505233
LeftHandThumb1 -26.253704 0.000000 33.147579
RightShoulder -21.622685 -55.802886 17.940600
RightArm 72.991105 -8.388849 33.536249
RightForeArm 48.975083 -0.000000 22.071209
RightHand 1.428053 -0.000000 23.389790
RightHandThumb1 -24.326973 -0.000000 -32.862282
LeftUpLeg -44.161206 5.496672 17.004368
LeftLeg 33.380148 -0.000000 -0.000000
LeftFoot -13.198445 -12.387190 -4.579676
LeftToeBase 5.669768 -0.000000 -0.000000
RightUpLeg -134.813675 8.205147 18.817452
RightLeg 136.226454 -0.000000 -0.000000
RightFoot 26.001413 3.682083 26.064065
RightToeBase -13.430166 -0.000000 0.000000
221
root 2.918831 36.841264 3.054406 36.365223 -16.323303 -21.423989
Spine -30.142954 9.143574 16.911177
Head 14.154354 8.160487 6.902752
LeftShoulder -3.247154 28.734724 17.171031
LeftArm 26.530003 32.868359 -70.488782
LeftForeArm 18.144502 -0.000000 29.821819
LeftHand -11.445802 -0.000000 -12.203521
LeftHandThumb1 -26.253704 0.000000 33.147579
RightShoulder -21.452568 -55.858528 17.734610
RightArm 73.104098 -8.605283 33.086297
RightForeArm 50.151253 -0.000000 22.200880
RightHand 1.510554 -0.000000 23.279106
RightHandThumb1 -24.326973 -0.000000 -32.862282
LeftUpLeg -44.255754 5.680445 16.768729
LeftLeg 33.570753 -0.000000 -0.000000
LeftFoot -13.214686 -12.987580 -4.532720
LeftToeBase 5.888509 -0.000000 -0.000000
RightUpLeg -134.837442 8.105022 19.025560
RightLeg 136.474633 -0.000000 -0.000000
RightFoot 26.729725 3.709830 26.291418
RightToeBase -13.166755 -0.000000 0.000000
222
root 2.923615 36.822379 3.076084 36.260665 -16.013953 -21.243514
Spine -30.255856 9.018484 16.956333
Head 14.068628 8.292966 6.861257
LeftShoulder -3.235222 28.744660 17.103389
LeftArm 26.425092 32.588401 -70.348222
LeftForeArm 18.327777 0.000000 29.408250
LeftHand -11.890915 -0.000000 -11.998977
LeftHandThumb1 -26.253704 0.000000 33.147579
RightShoulder -21.335817 -55.896303 17.598352
RightArm 73.055709 -8.683376 33.150524
RightForeArm 49.995552 -0.000000 22.257346
RightHand 1.608888 -0.000000 23.385777
RightHandThumb1 -24.326973 -0.000000 -32.862282
LeftUpLeg -44.425474 5.958464 16.468007
LeftLeg 33.702905 -0.000000 -0.000000
LeftFoot -13.164356 -13.655933 -4.498337
LeftToeBase 5.993232 -0.000000 -0.000000
RightUpLeg -134.946792 8.090711 19.278335
RightLeg 136.724322 -0.000000 -0.000000
RightFoot 27.325946 3.545406 26.505817
RightToeBase -12.064264 -0.000000 0.000000
223
root 2.925487 36.806166 3.093684 36.222874 -15.703310 -21.042092
Spine -30.452469 8.899511 16.902612
Head 13.983674 8.395773 6.902774
LeftShoulder -3.257891 28.815777 17.012985
LeftArm 26.493897 32.343704 -70.073225
LeftForeArm 18.524954 -0.000000 28.955338
LeftHand -12.069414 -0.000000 -11.556097
LeftHandThumb1 -26.253704 0.000000 33.147579
RightShoulder -21.377464 -56.048886 17.654059
RightArm 73.011327 -8.634551 33.364354
RightForeArm 50.183425 -0.000000 22.286310
RightHand 1.500113 0.000000 23.802992
RightHandThumb1 -24.326973 -0.000000 -32.862282
LeftUpLeg -44.657631 6.263740 16.151777
LeftLeg 33.805384 -0.000000 -0.000000
LeftFoot -13.113477 -14.403340 -4.659920
LeftToeBase 6.472823 -0.000000 -0.000000
RightUpLeg -135.119223 8.073432 19.510566
RightLeg 136.982714 -0.000000 -0.000000
RightFoot 27.723015 3.328514 27.189379
RightToeBase -9.840587 -0.000000 0.000000
224
root 2.927916 36.794941 3.107553 36.258768 -15.369442 -20.829924
Spine -30.729509 8.775463 16.811196
Head 13.904209 8.498947 6.957156
LeftShoulder -3.272331 28.837482 16.910315
LeftArm 26.462864 32.023444 -69.888903
LeftForeArm 18.610025 -0.000000 28.559627
LeftHand -12.392892 -0.000000 -11.098884
LeftHandThumb1 -26.253704 0.000000 33.147579
RightShoulder -21.542186 -56.173072 17.816133
RightArm 72.957750 -8.619657 33.467342
RightForeArm 50.482077 0.000000 22.406853
RightHand 1.391444 -0.000000 24.210981
RightHandThumb1 -24.326973 -0.000000 -32.862282
LeftUpLeg -44.946551 6.534766 15.867166
LeftLeg 33.857849 -0.000000 -0.000000
LeftFoot -13.045070 -15.213093 -5.015413
LeftToeBase 7.313736 -0.000000 -0.000000
RightUpLeg -135.354205 8.049841 19.782094
RightLeg 137.213385 -0.000000 -0.000000
RightFoot 28.139281 3.286557 27.743616
RightToeBase -10.471938 -0.000000 0.000000
225
root 2.930536 36.793345 3.114946 36.503140 -15.076535 -20.641065
Spine -31.227846 8.745741 16.643081
Head 13.878895 8.621328 7.037483
LeftShoulder -3.316979 28.937702 16.774961
LeftArm 26.505193 31.689309 -69.650839
LeftForeArm 18.717724 -0.000000 28.173047
LeftHand -12.530875 -0.000000 -10.682522
LeftHandThumb1 -26.253704 0.000000 33.147579
RightShoulder -21.871282 -56.327273 18.092812
RightArm 72.953083 -8.681396 33.444413
RightForeArm 50.955266 -0.000000 22.672778
RightHand 1.262916 -0.000000 24.444508
RightHandThumb1 -24.326973 -0.000000 -32.862282
LeftUpLeg -45.400023 6.890820 15.580590
LeftLeg 33.871610 -0.000000 -0.000000
LeftFoot -12.900647 -16.103739 -5.445915
LeftToeBase 8.196638 -0.000000 -0.000000
RightUpLeg -135.744711 8.111570 20.044698
RightLeg 137.410396 -0.000000 -0.000000
RightFoot 28.465387 3.486586 28.064524
RightToeBase -11.899385 -0.000000 0.000000
226
root 2.931771 36.794540 3.121226 36.788703 -14.795203 -20.434320
Spine -31.780239 8.714284 16.407966
Head 13.896849 8.716140 7.136432
LeftShoulder -3.363452 29.000852 16.667975
LeftArm 26.467703 31.325492 -69.530077
LeftForeArm 18.776328 -0.000000 27.809775
LeftHand -12.981970 -0.000000 -10.013053
LeftHandThumb1 -26.253704 0.000000 33.147579
RightShoulder -22.254277 -56.513463 18.404582
RightArm 72.993257 -8.772550 33.371458
RightForeArm 51.455706 -0.000000 22.947733
RightHand 1.148759 -0.000000 24.627056
RightHandThumb1 -24.326973 -0.000000 -32.862282
LeftUpLeg -45.893414 7.214100 15.303777
LeftLeg 33.886211 -0.000000 -0.000000
LeftFoot -12.710116 -17.018295 -6.067475
LeftToeBase 9.262914 -0.000000 -0.000000
RightUpLeg -136.186335 8.211939 20.342135
RightLeg 137.638614 -0.000000 -0.000000
RightFoot 28.494165 3.717770 28.217396
RightToeBase -12.906539 -0.000000 0.000000
227
root 2.929320 36.790601 3.131860 36.873221 -14.571792 -20.247623
Spine -32.067640 8.679453 16.157220
Head 13.917424 8.771732 7.217522
LeftShoulder -3.426216 29.038852 16.527434
LeftArm 26.490648 30.889718 -69.439426
LeftForeArm 18.811965 -0.000000 27.379458
LeftHand -13.219651 -0.000000 -9.412527
LeftHandThumb1 -26.253704 0.000000 33.147579
RightShoulder -22.617252 -56.649303 18.696754
RightArm 73.060209 -8.871459 33.261874
RightForeArm 52.038585 0.000000 23.142170
RightHand 0.926427 0.000000 24.851551
RightHandThumb1 -24.326973 -0.000000 -32.862282
LeftUpLeg -46.175126 7.505717 15.053656
LeftLeg 33.938350 -0.000000 -0.000000
LeftFoot -12.579160 -17.932416 -6.806471
LeftToeBase 10.639477 -0.000000 -0.000000
RightUpLeg -136.439467 8.298303 20.672433
RightLeg 137.894297 -0.000000 -0.000000
RightFoot 28.349747 3.946764 28.192482
RightToeBase -13.163020 -0.000000 0.000000
228
root 2.918931 36.783074 3.160027 36.410801 -13.989032 -20.330005
Spine -31.642412 8.377903 16.662603
Head 13.935036 8.971816 6.873319
LeftShoulder -3.568452 29.054992 16.029458
LeftArm 26.556777 30.335702 -69.390986
LeftForeArm 18.694689 0.000000 26.897783
LeftHand -13.514026 -0.000000 -8.564695
LeftHandThumb1 -26.253704 0.000000 33.147579
RightShoulder -22.440710 -56.719021 18.330593
RightArm 72.999728 -8.945176 33.282269
RightForeArm 52.662043 -0.000000 23.297454
RightHand 0.792321 -0.000000 25.088731
RightHandThumb1 -24.326973 -0.000000 -32.862282
LeftUpLeg -45.971584 7.536701 15.299796
LeftLeg 34.143494 -0.000000 -0.000000
LeftFoot -12.561587 -18.862388 -7.527671
LeftToeBase 12.105607 -0.000000 -0.000000
RightUpLeg -136.106987 8.015148 21.573153
RightLeg 138.256943 -0.000000 -0.000000
RightFoot 27.851211 4.123130 27.789059
RightToeBase -11.767512 -0.000000 0.000000
229
root 2.911930 36.777798 3.171770 36.369766 -13.829016 -20.193294
Spine -31.734022 8.373035 16.414194
Head 14.010138 9.021411 6.859446
LeftShoulder -3.633342 28.999056 15.886484
LeftArm 26.498749 29.889690 -69.461274
LeftForeArm 18.529130 -0.000000 26.431604
LeftHand -13.686087 0.000000 -7.773569
LeftHandThumb1 -26.253704 0.000000 33.147579
RightShoulder -22.522622 -56.764983 18.288094
RightArm 72.960342 -9.169143 33.240897
RightForeArm 53.237915 0.000000 23.495593
RightHand 0.749801 -0.000000 25.271374
RightHandThumb1 -24.326973 -0.000000 -32.862282
LeftUpLeg -46.097603 7.757917 15.117902
LeftLeg 34.226806 -0.000000 -0.000000
LeftFoot -12.382852 -19.474990 -8.069761
LeftToeBase 12.942114 -0.000000 -0.000000
RightUpLeg -136.236420 8.122269 21.961192
RightLeg 138.526440 -0.000000 -0.000000
RightFoot 27.462153 4.119721 27.774826
RightToeBase -11.044048 -0.000000 0.000000
230
root 2.910513 36.778185 3.178183 36.476685 -13.697347 -20.084508
Spine -31.972941 8.466476 16.137881
Head 14.139212 9.038296 6.792889
LeftShoulder -3.663614 28.942293 15.782736
LeftArm 26.373236 29.447311 -69.643883
LeftForeArm 18.363685 -0.000000 26.051768
LeftHand -13.915344 0.000000 -6.999632
LeftHandThumb1 -26.253704 0.000000 33.147579
RightShoulder -22.549649 -56.834119 18.120245
RightArm 72.855155 -9.452998 33.190043
RightForeArm 53.886758 -0.000000 23.830890
RightHand 0.795092 -0.000000 25.388826
RightHandThumb1 -24.326973 -0.000000 -32.862282
LeftUpLeg -46.351167 7.921373 14.953748
LeftLeg 34.293594 -0.000000 -0.000000
LeftFoot -12.179609 -19.779799 -8.312185
LeftToeBase 12.762268 -0.000000 -0.000000
RightUpLeg -136.480248 8.253807 22.299848
RightLeg 138.756468 -0.000000 -0.000000
RightFoot 27.101236 4.083120 27.895961
RightToeBase -10.759646 -0.000000 0.000000
